<svg xmlns="http://www.w3.org/2000/svg" width="193.6" height="193.57" viewBox="-70 0 193.6 193.57"><linearGradient id="a" gradientUnits="userSpaceOnUse" x1="6.65" y1="96.78" x2="45.24" y2="96.78"><stop offset=".15" stop-color="#0af"/><stop offset=".5" stop-color="#4d4dff"/><stop offset=".85" stop-color="#0af"/></linearGradient><path fill="url(#a)" d="M6.65 181.8V11.76L25.92.66 45.24 11.8v170l-19.32 11.12z"/><path d="m25.92 1.3 18.76 10.82v169.35l-18.76 10.8-18.71-10.8V12.1L25.92 1.3m0-1.3-.56.32-18.71 10.8-.56.33v170.66l.56.33 18.71 10.8.56.33.56-.33 18.76-10.8.56-.33V11.48l-.56-.33L26.48.32 25.92 0z"/><path fill="#0000B2" d="m25.92 5.18 15.4 8.88v165.46l-15.4 8.87-15.35-8.86V14.04l15.35-8.86m0-3.89L7.21 12.1v169.37l18.71 10.8 18.76-10.8V12.12L25.92 1.3z"/></svg>