<svg xmlns="http://www.w3.org/2000/svg" viewBox="0 0 512.001 512.001" style="enable-background:new 0 0 512.001 512.001" xml:space="preserve"><path d="M255.999 0C141.676 0 48.665 93.009 48.665 207.334v67.004c0 15.315 4.715 27.274 14.014 35.542 20.093 17.868 54.773 13.788 102.775 8.142 8.254-.971 16.845-1.981 25.715-2.917l-21.193 177.314c-.07.583-.105 1.168-.105 1.755 0 1.546.101 3.122.306 4.823a14.783 14.783 0 0 0 14.676 13.005h142.293a14.785 14.785 0 0 0 14.679-13.017c.204-1.697.303-3.272.303-4.811 0-.585-.034-1.172-.104-1.755l-21.169-177.112c9.091 1.011 17.889 2.104 26.338 3.155 21.96 2.732 41.091 5.111 57.312 5.111 18.804 0 33.694-3.201 44.516-12.76 9.497-8.39 14.314-20.662 14.314-36.474v-67.004C463.333 93.009 370.324 0 255.999 0zm115.212 85.474c12.797 0 23.208 10.411 23.208 23.208s-10.411 23.208-23.208 23.208-23.208-10.411-23.208-23.208c0-12.797 10.411-23.208 23.208-23.208zm-230.424 0c12.797 0 23.208 10.411 23.208 23.208s-10.411 23.208-23.208 23.208c-12.797 0-23.208-10.409-23.208-23.206 0-12.798 10.411-23.21 23.208-23.21zm-15.613 202.678c-12.797 0-23.208-10.411-23.208-23.208 0-12.797 10.411-23.208 23.208-23.208 12.797 0 23.208 10.411 23.208 23.208 0 12.797-10.411 23.208-23.208 23.208zm75.773 194.28 20.318-169.985a764.84 764.84 0 0 1 6.414-.398 717.48 717.48 0 0 1 3.362-.185c.732-.037 1.459-.071 2.185-.105a529.99 529.99 0 0 1 3.383-.148c.634-.027 1.271-.053 1.901-.077.899-.033 1.802-.059 2.704-.087v82.499c0 8.164 6.619 14.784 14.784 14.784 8.164 0 14.784-6.62 14.784-14.784v-82.487c.94.031 1.882.061 2.819.096.611.024 1.227.052 1.842.077 1.178.05 2.355.105 3.527.164.683.034 1.365.067 2.052.104 1.313.069 2.621.148 3.927.226a629.577 629.577 0 0 1 5.791.383l20.31 169.923H200.947zm185.877-194.28c-12.797 0-23.208-10.411-23.208-23.208 0-12.797 10.411-23.208 23.208-23.208s23.208 10.411 23.208 23.208c0 12.797-10.41 23.208-23.208 23.208zm46.941-47.282c-8.767-17.024-26.511-28.702-46.941-28.702-29.101 0-52.776 23.677-52.776 52.776a52.454 52.454 0 0 0 5.158 22.739c-16.613-2.022-34.396-3.995-53.149-5.112-.237-.015-.47-.027-.707-.04-1.758-.102-3.523-.2-5.299-.285-.495-.024-.985-.044-1.477-.067a534.956 534.956 0 0 0-4.475-.191c-.781-.03-1.551-.052-2.326-.078-1.211-.04-2.422-.081-3.64-.112-1.133-.03-2.252-.049-3.372-.07-.886-.016-1.767-.038-2.655-.05a447.919 447.919 0 0 0-12.17-.003c-.903.012-1.801.033-2.7.049-1.095.021-2.187.037-3.294.064-1.24.031-2.472.071-3.705.109-.744.024-1.483.044-2.232.071-1.526.055-3.043.12-4.558.185-.463.021-.922.038-1.387.061a543.05 543.05 0 0 0-5.386.278l-.63.034c-18.74 1.064-36.519 2.942-53.116 4.857a52.446 52.446 0 0 0 5.021-22.435c0-29.101-23.675-52.776-52.776-52.776-20.432 0-38.175 11.678-46.941 28.703v-33.536c-.001-26.299 5.744-51.275 16.035-73.755 8.909 16.576 26.416 27.875 46.518 27.875 29.101 0 52.776-23.677 52.776-52.776 0-22.966-14.75-42.54-35.269-49.779 28.056-18.529 61.639-29.336 97.705-29.336s69.649 10.807 97.705 29.336c-20.52 7.238-35.27 26.814-35.27 49.779 0 29.101 23.677 52.776 52.776 52.776 20.1 0 37.608-11.299 46.518-27.875 10.291 22.479 16.038 47.455 16.038 73.752v33.534z"/><path d="M255.999 118.708c-34.135 0-61.907 27.77-61.907 61.907s27.772 61.907 61.907 61.907c34.136 0 61.907-27.77 61.907-61.907s-27.77-61.907-61.907-61.907zm0 94.245c-17.831 0-32.339-14.508-32.339-32.339s14.508-32.339 32.339-32.339c17.832 0 32.339 14.508 32.339 32.339s-14.508 32.339-32.339 32.339zM270.502 435.404a15.756 15.756 0 0 0-.857-2.765 15.033 15.033 0 0 0-1.36-2.543 14.031 14.031 0 0 0-1.833-2.247 14.626 14.626 0 0 0-4.805-3.21 15.138 15.138 0 0 0-2.763-.828 14.574 14.574 0 0 0-5.766 0c-.946.177-1.878.473-2.779.828-.887.37-1.745.829-2.543 1.362a14.922 14.922 0 0 0-2.247 1.848 14.14 14.14 0 0 0-1.833 2.247 14.962 14.962 0 0 0-1.36 2.543c-.37.902-.65 1.833-.843 2.765a14.853 14.853 0 0 0-.296 2.898c0 .961.104 1.938.296 2.883.192.945.473 1.878.843 2.765a14.6 14.6 0 0 0 1.36 2.556 14.066 14.066 0 0 0 1.833 2.249 14.14 14.14 0 0 0 2.247 1.833c.798.531 1.656.991 2.558 1.36.887.37 1.818.649 2.765.841a14.43 14.43 0 0 0 2.883.296c.961 0 1.937-.102 2.883-.296a14.897 14.897 0 0 0 2.763-.841 14.72 14.72 0 0 0 2.558-1.36 14.14 14.14 0 0 0 2.247-1.833 13.906 13.906 0 0 0 1.833-2.249c.532-.798.991-1.654 1.36-2.556.37-.889.665-1.818.857-2.765s.281-1.922.281-2.883a14.987 14.987 0 0 0-.282-2.898z"/></svg>