<svg xmlns="http://www.w3.org/2000/svg" viewBox="0 0 297 297" style="enable-background:new 0 0 297 297" xml:space="preserve"><path d="M286.436 119.618c0-34.001-26.374-61.957-59.74-64.48C215.053 22.326 183.896 0 148.5 0S81.947 22.326 70.304 55.138c-33.366 2.523-59.74 30.479-59.74 64.48 0 17.348 6.877 33.743 19.055 45.843a56.758 56.758 0 0 0-.737 9.11c0 31.329 25.487 56.816 56.815 56.816h30.843v55.899c0 5.364 4.349 9.714 9.714 9.714h47.551c5.364 0 9.714-4.349 9.714-9.714v-55.899h27.784c31.328 0 56.815-25.487 56.815-56.816 0-3.05-.247-6.097-.737-9.11 12.179-12.099 19.055-28.494 19.055-45.843zm-119.5 87.198a9.717 9.717 0 0 0-2.845 6.869v63.887h-28.124v-75.6a9.718 9.718 0 0 0-2.845-6.869l-16.906-16.906 3.074-3.074 11.982 11.983a9.716 9.716 0 0 0 16.583-6.869v-18.141h4.348v29.853a9.716 9.716 0 0 0 16.583 6.869l8.923-8.924 3.074 3.074-13.847 13.848zm83.59-52.273a9.716 9.716 0 0 0-3.186 10.074 37.499 37.499 0 0 1 1.351 9.954c0 20.616-16.772 37.389-37.388 37.389h-22.035l12.122-12.122a9.717 9.717 0 0 0 0-13.738l-16.812-16.811a9.715 9.715 0 0 0-12.947-.71v-16.197c0-5.364-4.349-9.714-9.714-9.714h-23.775c-5.364 0-9.714 4.349-9.714 9.714v4.403l-2.268-2.269a9.715 9.715 0 0 0-13.738 0L95.61 171.328a9.714 9.714 0 0 0 0 13.738l20.93 20.93v5.963H85.697c-20.615 0-37.388-16.772-37.388-37.389 0-3.351.454-6.7 1.351-9.954a9.716 9.716 0 0 0-3.186-10.074c-10.475-8.636-16.482-21.367-16.482-34.924 0-24.945 20.294-45.239 45.239-45.239.633 0 1.259.024 1.885.05 4.61.177 8.68-2.847 9.82-7.292 7.206-28.091 32.522-47.711 61.565-47.711s54.359 19.619 61.565 47.711c1.14 4.445 5.246 7.465 9.82 7.292.626-.027 1.252-.05 1.885-.05 24.945 0 45.238 20.294 45.238 45.239 0 13.558-6.008 26.288-16.483 34.925z"/></svg>