<svg version="1.2" baseProfile="tiny" xmlns="http://www.w3.org/2000/svg" viewBox="-351 153 256 256" xml:space="preserve"><path d="M-246.9 179.2c0-12.3 10.1-22.4 22.4-22.4s22.4 10.1 22.4 22.4c0 12.3-10.1 22.4-22.4 22.4s-22.4-10.1-22.4-22.4zm-13.7 87.1h-19.7v-31.7c0-15.4 12.4-27.8 27.8-27.8h55.8c15.3 0 27.8 12.5 27.8 27.8v31.7h-19.3v-26.1c0-1.7-1.2-2.9-2.9-2.9s-2.9 1.2-2.9 2.9h.2v26.2h-61.3v-26.2c0-1.7-1.2-2.9-2.9-2.9s-2.9 1.2-2.9 2.9l.3 26.1zm154.6 6v27.5h-24.4V409h-186.1V299.7H-340v-27.5l234 .1z"/></svg>