<svg xmlns="http://www.w3.org/2000/svg" viewBox="0 0 470 470" style="enable-background:new 0 0 470 470" xml:space="preserve"><path d="M359.521 212.758H110.479c-9.262 0-16.796 7.535-16.796 16.796v44.597a7.5 7.5 0 0 0 7.5 7.5h1.494V462.5a7.5 7.5 0 0 0 7.5 7.5H359.22a7.5 7.5 0 0 0 7.5-7.5V281.652h2.097a7.5 7.5 0 0 0 7.5-7.5v-44.597c-.001-9.262-7.535-16.797-16.796-16.797zM351.72 455H117.678V281.652H299.22c4.143 0 7.5-3.358 7.5-7.5s-3.357-7.5-7.5-7.5H108.684v-37.097c0-.991.806-1.796 1.796-1.796h249.041c.99 0 1.796.806 1.796 1.796v37.097H329.22c-4.143 0-7.5 3.358-7.5 7.5s3.357 7.5 7.5 7.5h22.5V455z"/><path d="M412.716 14.461H301.475V7.5c0-4.142-3.357-7.5-7.5-7.5s-7.5 3.358-7.5 7.5v6.961h-15.987V7.5c0-4.142-3.357-7.5-7.5-7.5s-7.5 3.358-7.5 7.5v6.961H242.5V7.5c0-4.142-3.357-7.5-7.5-7.5s-7.5 3.358-7.5 7.5v6.961h-12.987V7.5c0-4.142-3.357-7.5-7.5-7.5s-7.5 3.358-7.5 7.5v6.961h-12.987V7.5c0-4.142-3.357-7.5-7.5-7.5s-7.5 3.358-7.5 7.5v6.961H57.284c-4.143 0-7.5 3.358-7.5 7.5s3.357 7.5 7.5 7.5h5.11V462.5c0 4.142 3.357 7.5 7.5 7.5s7.5-3.358 7.5-7.5V29.461h94.131v6.961c0 4.142 3.357 7.5 7.5 7.5s7.5-3.358 7.5-7.5v-6.961h12.987v6.961c0 4.142 3.357 7.5 7.5 7.5s7.5-3.358 7.5-7.5v-6.961H227.5v49.165c-18.7 3.167-33.489 17.955-36.656 36.656h-3.14c-4.143 0-7.5 3.358-7.5 7.5s3.357 7.5 7.5 7.5h3.547l9.071 60.109a7.5 7.5 0 0 0 7.416 6.381h54.523a7.5 7.5 0 0 0 7.416-6.381l9.071-60.109h3.547c4.143 0 7.5-3.358 7.5-7.5s-3.357-7.5-7.5-7.5h-3.14c-3.167-18.7-17.956-33.489-36.656-36.656V29.461h12.987v6.961c0 4.142 3.357 7.5 7.5 7.5s7.5-3.358 7.5-7.5v-6.961h15.987v6.961c0 4.142 3.357 7.5 7.5 7.5s7.5-3.358 7.5-7.5v-6.961h90.528V462.5c0 4.142 3.357 7.5 7.5 7.5s7.5-3.358 7.5-7.5V29.461h5.713c4.143 0 7.5-3.358 7.5-7.5s-3.356-7.5-7.498-7.5zm-156.907 167.31h-41.617l-7.77-51.49h57.158l-7.771 51.49zm8.024-66.49h-57.666c2.71-10.413 10.92-18.627 21.333-21.337v1.87c0 4.142 3.357 7.5 7.5 7.5s7.5-3.358 7.5-7.5v-1.87c10.413 2.711 18.623 10.925 21.333 21.337z"/><path d="M161.495 424.013h-20c-4.143 0-7.5 3.358-7.5 7.5s3.357 7.5 7.5 7.5h20c4.143 0 7.5-3.358 7.5-7.5s-3.357-7.5-7.5-7.5zM307.902 328.627c-4.143 0-7.5 3.358-7.5 7.5s3.357 7.5 7.5 7.5h20c4.143 0 7.5-3.358 7.5-7.5s-3.357-7.5-7.5-7.5h-20zM192.482 393.025h-20c-4.143 0-7.5 3.358-7.5 7.5s3.357 7.5 7.5 7.5h20c4.143 0 7.5-3.358 7.5-7.5s-3.357-7.5-7.5-7.5z"/></svg>